<svg id="Слой_1" data-name="Слой 1" xmlns="http://www.w3.org/2000/svg" viewBox="0 0 1528.3 688.9"><defs><style>.cls-1{fill:#fff;}.cls-2{fill:#764b2a;}.cls-3{fill:#32a4dd;}</style></defs><path class="cls-1" d="M1469,368.35a30.17,30.17,0,0,0-26.7-16.13,34.13,34.13,0,0,0-20.38,7,67,67,0,0,0-5.24,4.24L1415,365l-1.4,1.77a48.21,48.21,0,0,1-13.13,11.06,33.53,33.53,0,0,1-4.49,2.29,53.71,53.71,0,0,1-1.58-6.88,82,82,0,0,1-1.06-13.26c0-.95,0-1.9.05-2.85a76.26,76.26,0,0,0,23.88-7.35,80.61,80.61,0,0,0,26-20.47,79.81,79.81,0,0,0,14.9-27.56,94.12,94.12,0,0,0,4.26-27.67c0-14.32-3.27-27.17-9.74-38.22-8.91-15.2-23.58-23.92-40.27-23.92s-32.3,6.46-45.39,18.69a122.06,122.06,0,0,0-22.31,28.75,50.54,50.54,0,0,0-23.89-11.27q1.85-4.66,3.58-9.44A459.32,459.32,0,0,0,1342,177.25c4.52-21.33,6.81-41.08,6.81-58.69,0-17.8-2.68-30.57-8.45-40.21-8-13.38-20.74-21-34.87-21-10.91,0-21.46,4.14-31.37,12.3a98,98,0,0,0-19,21.52c-7.59,11.16-14.45,25-20.39,41.13A452.82,452.82,0,0,0,1220,181.41c-4.17,17.16-7.88,35.3-11,53.9-.51,3-1,5.92-1.46,8.88-.72-.73-1.46-1.45-2.21-2.15a69.89,69.89,0,0,0-23.67-14.24,76.35,76.35,0,0,0-25.65-4.47,80.34,80.34,0,0,0-29.8,5.93,79.51,79.51,0,0,0-26.86,17.79,58,58,0,0,0-8.48-10.39,62.18,62.18,0,0,0-44-17.7,75.94,75.94,0,0,0-44.17,13.76,103.45,103.45,0,0,0-23.92,23.36c-.92-.95-1.81-1.8-2.63-2.57-.25-5.91-1-14.8-6.57-23.44s-13.34-13-18.62-15.69c-1.9-5.6-5.12-13.92-12.88-20.65s-16.46-8.74-22.26-9.83c-3.4-4.85-8.85-11.94-18.21-16.22a40.34,40.34,0,0,0-17.15-3.55,66.72,66.72,0,0,0-7,.41c-4.64-3.7-11.89-9-22.1-10.42a37.5,37.5,0,0,0-5.31-.37A48.38,48.38,0,0,0,827.3,158a48.38,48.38,0,0,0-18.72-4.21,37.5,37.5,0,0,0-5.31.37c-10.21,1.46-17.46,6.72-22.1,10.42a66.72,66.72,0,0,0-7-.41A40.34,40.34,0,0,0,757,167.68c-9.36,4.28-14.81,11.37-18.21,16.22-5.81,1.09-14.5,3.1-22.26,9.83s-11,15.05-12.88,20.65c-5.28,2.67-13.06,7-18.63,15.69-4.87,7.56-6,15.32-6.43,21.1C671.83,241.52,661.85,236,651,236a35,35,0,0,0-26.88,11.82,46.43,46.43,0,0,0-8.1,13.77,33.3,33.3,0,0,0-15.26-14.76A41.18,41.18,0,0,0,583,242.55a39.33,39.33,0,0,0-18.69,4.88,37.35,37.35,0,0,0-15.92,16.26c-.25.49-.49,1-.72,1.51a118,118,0,0,0-13.4-12.45,99.22,99.22,0,0,0,2.34-21.46,41.91,41.91,0,0,0-4.73-18.7,57.11,57.11,0,0,0-8.5-12.5,74.76,74.76,0,0,0-8.51-8.12c-8.61-6.94-17-8.4-22.54-8.4a30.71,30.71,0,0,0-29.23,21.35c-.51,1.56-1,3.22-1.52,5l-.22.73-.17.75q-2.55,10.94-4.93,21.41a43.25,43.25,0,0,0-11.06,4.51,39.47,39.47,0,0,0-13.85,13.39,35.92,35.92,0,0,0-2.64,5q-1.74-1.5-3.56-3a99.22,99.22,0,0,0,2.34-21.46,41.77,41.77,0,0,0-4.73-18.69,57.13,57.13,0,0,0-8.51-12.53,75.23,75.23,0,0,0-8.5-8.1c-8.61-6.94-17-8.4-22.54-8.4A30.65,30.65,0,0,0,354,204.87q-.78,2.4-1.56,5.06l-.2.71-.17.72q-2.55,10.94-4.93,21.42A43,43,0,0,0,336,237.3a39.82,39.82,0,0,0-7.25,5.37c-.22-.21-.43-.43-.65-.63a69.6,69.6,0,0,0-23.66-14.24,76.35,76.35,0,0,0-25.65-4.47,81.16,81.16,0,0,0-57,24,89.28,89.28,0,0,0-17.33,25.17,45.5,45.5,0,0,0-22.9-10.93,293.53,293.53,0,0,0,11.18-28.25,343,343,0,0,0,14.37-59.16,361.51,361.51,0,0,0,4.28-52c0-17.63-1.6-30.6-5-40.82-2.35-7-12-29.71-37.32-29.71-10.92,0-27.17,4-42.55,23.16-8.71,10.83-16.36,25-23.41,43.32A487.75,487.75,0,0,0,86,172.61C81.1,192,76.68,212.47,72.88,233.5c-3.76,20.82-7,41.08-9.58,60.21S58.73,330.47,57.42,346c-1.35,16.09-2,28.29-2,37.31V386c0,4,.12,8.51.35,13.48a130.82,130.82,0,0,0,1.82,16.92,60.09,60.09,0,0,0,7.06,20,36,36,0,0,0,31.23,18.3c9.63,0,18.49-4.38,25-12.42a50.41,50.41,0,0,0,6.64-11c1.23-2.75,2.3-5.5,3.2-8.18.53-1.58,1-2.87,1.33-3.85l.19-.51.17-.52q1-3.24,2.37-7c-.11,2.59-.17,5.11-.17,7.58,0,13.42,2.09,24.65,6.39,34.32,7.13,16.05,22.13,25.63,40.12,25.63,9.84,0,19.69-2.81,29.29-8.34a81.94,81.94,0,0,0,20.79-17l3.3-3.78A58.81,58.81,0,0,0,248,451.15c11.7,0,22.29-2.29,31.46-6.81A49.6,49.6,0,0,0,306.49,452a38.19,38.19,0,0,0,5.12-.35c-.05.46-.09.91-.13,1.37-.75,8-1.46,16.93-2.12,26.44-.68,9.79-1,19.49-1,28.81s.36,18.05,1.06,26.39a140.9,140.9,0,0,0,4.23,25.13c2.58,9.43,6.2,17.14,11.07,23.54a40.24,40.24,0,0,0,32.7,16.35,36.67,36.67,0,0,0,25.83-11,38.43,38.43,0,0,0,11.13-27.54,44.11,44.11,0,0,0-2.22-13.85,31.41,31.41,0,0,0-12.36-16.39c.15-7,.58-14.93,1.29-23.64.94-11.63,2-23.2,3.13-34.39,1-9.84,2-19,3-27.31a91,91,0,0,0,23.18-7.43A98,98,0,0,0,423,430.9c-.86,6.58-1.68,14-2.43,22.14s-1.46,16.91-2.12,26.44c-.68,9.77-1,19.47-1,28.81,0,9.19.35,18.07,1.05,26.38a140.87,140.87,0,0,0,4.23,25.14c2.57,9.42,6.2,17.13,11.07,23.54a40.24,40.24,0,0,0,32.7,16.35,36.62,36.62,0,0,0,25.82-11,38.42,38.42,0,0,0,11.14-27.55,44.33,44.33,0,0,0-2.22-13.87,31.43,31.43,0,0,0-12.35-16.37c.15-7,.57-14.94,1.28-23.64.94-11.7,2-23.26,3.13-34.39,1-9.84,2-19,3-27.31a91,91,0,0,0,23.18-7.43,95.48,95.48,0,0,0,26.35-18.56,62.1,62.1,0,0,0,8.41,13.67,45.69,45.69,0,0,0,4.26,4.51c-1.39.65-2.76,1.34-4.09,2.08A71.52,71.52,0,0,0,530,462a87,87,0,0,0-12.73,29.3,130.52,130.52,0,0,0-3.45,30.06,154.94,154.94,0,0,0,4.84,37.91,136.11,136.11,0,0,0,14.48,35.77,99.57,99.57,0,0,0,24.67,28.48,64.57,64.57,0,0,0,39.74,13.72c15.74,0,31-6,45.33-17.74,12.75-10.47,23.47-25.67,32.78-46.49,8.44-18.88,15-42.1,20.15-71,3.75-21.23,6.09-46,7-73.82l.84.43c1.9,5.6,5.12,13.91,12.88,20.64S733,458,738.82,459.12c3.4,4.85,8.85,11.94,18.21,16.22a40.34,40.34,0,0,0,17.15,3.55,70,70,0,0,0,7-.4c4.64,3.7,11.89,9,22.1,10.41a37.5,37.5,0,0,0,5.31.38,48.55,48.55,0,0,0,18.72-4.22A48.36,48.36,0,0,0,846,489.28a37.5,37.5,0,0,0,5.31-.38c10.21-1.45,17.45-6.71,22.1-10.41a69.79,69.79,0,0,0,7,.4,40.34,40.34,0,0,0,17.15-3.55c9.36-4.28,14.81-11.37,18.21-16.22,5.8-1.08,14.5-3.1,22.26-9.83s11-15,12.88-20.64c4.87-2.47,11.88-6.4,17.3-13.78.2.33.39.68.59,1a80.78,80.78,0,0,0,25.33,26.24,69.26,69.26,0,0,0,38.06,10.78,68.38,68.38,0,0,0,20.72-3.28,77.17,77.17,0,0,0,18.71-8.87,88.49,88.49,0,0,0,10.69-8.22c1,1,1.93,2,3,3a56.75,56.75,0,0,0,19.41,12,59.51,59.51,0,0,0,20.42,3.66c11.7,0,22.29-2.29,31.46-6.81a49.6,49.6,0,0,0,27.08,7.68,42.27,42.27,0,0,0,22-6.43c1.68-1,3.31-2.14,4.92-3.34a34.89,34.89,0,0,0,23.38,8.9,30.85,30.85,0,0,0,12.95-2.86c.39,2.5.81,5,1.24,7.52a487,487,0,0,0,11,48.69,244.79,244.79,0,0,0,17.67,45.91c7.67,14.9,16.9,27.29,27.45,36.82,13.16,11.87,29.12,18.15,46.17,18.15,14.1,0,27.52-5.35,38.82-15.51A104.18,104.18,0,0,0,1411,561.54,150.44,150.44,0,0,0,1424,528a142.66,142.66,0,0,0,4.7-35.38c0-17.39-3.28-32.74-9.74-45.84a87.15,87.15,0,0,0,16.49-8.76,121.16,121.16,0,0,0,17.2-14.13,84.91,84.91,0,0,0,14.81-19.68,37.87,37.87,0,0,0,3.29-6.87,36.8,36.8,0,0,0-1.73-28.94Z"/><path class="cls-2" d="M210.09,434.89A53.34,53.34,0,0,1,196.41,446q-7.95,4.59-15.27,4.59-10.5,0-14.48-9t-4-22.93a181.3,181.3,0,0,1,2.06-26q2.07-14.19,4.62-28T174,339.21A116.13,116.13,0,0,0,176.05,320q0-16.16-6.36-16.16-8.92,0-18.78,12a167,167,0,0,0-18.61,28.84,346.44,346.44,0,0,0-15.75,34.95q-7,18.13-10.81,29.93-.64,1.76-1.59,4.59c-.64,1.9-1.39,3.79-2.23,5.68a22.17,22.17,0,0,1-2.87,4.81,4.31,4.31,0,0,1-3.18,2q-4.45,0-7-4.37a32.35,32.35,0,0,1-3.66-10.7,104.45,104.45,0,0,1-1.43-13.33q-.32-7-.31-12.23v-2.62q0-12.24,1.9-35t5.73-50.9q3.83-28.19,9.39-59t12.72-59a455.11,455.11,0,0,1,16.07-51.33q8.9-23.16,19.09-35.83t20.68-12.67q14.31,0,14.32,42.47a332.26,332.26,0,0,1-4,47.94,314.74,314.74,0,0,1-13.2,54.3A262.47,262.47,0,0,1,142.32,276a129.6,129.6,0,0,1-36.27,39.57q-1.9,14-3.18,27.75T101.6,371.1v6.12a53,53,0,0,0,.32,5.68q4.77-12.67,12.25-28.84a255.94,255.94,0,0,1,16.7-30.58,125.51,125.51,0,0,1,20-24.47q10.82-10,22.27-10.05,21.31,0,21.32,34a139.45,139.45,0,0,1-2.07,20.48q-2.07,13.06-4.61,27.88t-4.61,29.19a174.19,174.19,0,0,0-2.07,24.39,39.73,39.73,0,0,0,1.11,10.46q1.11,3.92,4,3.92a10.38,10.38,0,0,0,5.57-2q3-2,5.88-4.15l5.41-4.15c1.7-1.31,3-2,3.82-2a3.18,3.18,0,0,1,2.7,1.75,7.16,7.16,0,0,1,1.12,3.93ZM169.69,96.72q-4.14,0-8.6,6.56-5.42,7.88-11.13,23.4t-11.3,34.78q-5.57,19.24-10.49,40.24t-8.91,39.8q-4,18.81-6.52,33.47t-3.19,21.21q15.58-13.12,27.52-35a262.88,262.88,0,0,0,20.05-47.9,360,360,0,0,0,12.25-53.58,347.19,347.19,0,0,0,4.13-51.18Q173.5,96.73,169.69,96.72Z"/><path class="cls-2" d="M327.64,407.58a38.51,38.51,0,0,1-6,7.87,39.16,39.16,0,0,1-7.64,6.12,14.68,14.68,0,0,1-7.47,2.4q-14.64,0-21.32-14.86Q275,415.25,267,419.16T248,423.1a31.47,31.47,0,0,1-10.82-2,28.74,28.74,0,0,1-9.86-6.12A32.08,32.08,0,0,1,220,404.53a35.18,35.18,0,0,1-2.86-14.64q0-11.36,4.77-19a40,40,0,0,1,11.61-12.23,42.89,42.89,0,0,1,14.8-6.34,68.76,68.76,0,0,1,14.63-1.74,47.15,47.15,0,0,1,11.77,1.31,51,51,0,0,1,11.46,4.8q5.4-14,11.13-27.52A75.48,75.48,0,0,0,303,299.45q0-16.6-6.05-26.87t-18.45-10.27A29.14,29.14,0,0,0,264.81,266a44.83,44.83,0,0,0-12.73,10.27,54.85,54.85,0,0,0-9.38,15.51A50.89,50.89,0,0,0,239,311.24a32.41,32.41,0,0,0,2.55,12.67c.42,1.17,1.11,1.61,2.06,1.32a8.59,8.59,0,0,1,2.39-.44c2.54,0,3.82,1.46,3.82,4.37a7.59,7.59,0,0,1-3.82,6.77q-3.82,2.4-6.36,2.4-7.34,0-11.46-8.3a37.73,37.73,0,0,1-4.13-17q0-15.28,4.93-26.65a62,62,0,0,1,12.72-19.23,51.58,51.58,0,0,1,17.66-11.79,52.15,52.15,0,0,1,19.41-3.93A47.83,47.83,0,0,1,295,254.23a41.27,41.27,0,0,1,14.15,8.52,43.4,43.4,0,0,1,10.18,14.63q4,9,4,21.63a85.71,85.71,0,0,1-3.5,24.47q-3.51,11.79-7.64,23.59t-7.63,24a93.06,93.06,0,0,0-3.5,25.78,39.77,39.77,0,0,0,1.27,9.83q1.27,5,5.73,5a8.65,8.65,0,0,0,5.88-2.41,49.52,49.52,0,0,0,5.09-5.24q2.38-2.83,4.46-5.24c1.37-1.6,2.59-2.41,3.66-2.41a2.64,2.64,0,0,1,1.9,1.09,3.59,3.59,0,0,1,1,2.41A15.43,15.43,0,0,1,327.64,407.58Zm-54.88-43a18.38,18.38,0,0,0-12.09-3.93,26.19,26.19,0,0,0-10,2.18,30.53,30.53,0,0,0-9.38,6.12,33.15,33.15,0,0,0-6.85,9.39,26.78,26.78,0,0,0-2.7,12,21.93,21.93,0,0,0,5.89,15.51q5.88,6.33,13.2,6.33,9.54,0,15.59-5.24t14-12.24v-8.3a59.74,59.74,0,0,1,.64-8.73Q277.53,368.48,272.76,364.55Z"/><path class="cls-2" d="M365.34,419.16a10.91,10.91,0,0,1-2.86-.43q-1,6.11-2.71,20.09t-3.49,31.24q-1.75,17.26-3.19,35t-1.43,31.24a110.26,110.26,0,0,0,.95,16.16q1,6.12,3.19,7a7.37,7.37,0,0,1,2.54-4.15,6.11,6.11,0,0,1,3.82-1.53,3.22,3.22,0,0,1,3.34,2.41,15.85,15.85,0,0,1,.8,5,10.31,10.31,0,0,1-2.87,7.65,8.55,8.55,0,0,1-6,2.84,12.38,12.38,0,0,1-10.34-5.25q-4-5.24-6.36-14a112,112,0,0,1-3.35-20.09q-.94-11.37-.95-24,0-13.1.95-26.87t2.07-25.77q1.11-12,2.39-21.63c.84-6.41,1.59-11.36,2.22-14.86q-1.9-2.62-1.9-7.42a22.68,22.68,0,0,1,1.11-7q1.11-3.5,3.66-4.37,4.46-32.34,10-64t11-63.58a5.15,5.15,0,0,1-1.43-.21,5.43,5.43,0,0,0-1.44-.22q-1.9,0-7.15,2.4a22.58,22.58,0,0,1-9.07,2.41,4.39,4.39,0,0,1-3-1.32,4.47,4.47,0,0,1-1.44-3.49,12.66,12.66,0,0,1,1.59-6.77,11.77,11.77,0,0,1,4.14-4,15.29,15.29,0,0,1,5.41-1.91,37.34,37.34,0,0,1,5.41-.42,28.75,28.75,0,0,1,8.59,1.3q2.53-10.91,4.93-21.4t4.93-21.41c.42-1.45.84-2.84,1.27-4.15a2.51,2.51,0,0,1,2.55-2,8.2,8.2,0,0,1,4.93,2.18,45.59,45.59,0,0,1,5.25,5,28.56,28.56,0,0,1,4.29,6.33,14.06,14.06,0,0,1,1.75,6.12,70.6,70.6,0,0,1-2.06,17q-2.08,8.29-3.66,17,45.49,25.71,45.49,77.13a88.26,88.26,0,0,1-4.77,28.76,75.14,75.14,0,0,1-13.84,24.62,66.46,66.46,0,0,1-22.27,17,68.09,68.09,0,0,1-29.75,6.31Zm9.7-77.55q-5.88,32.11-10.34,64.88c1.49.3,3,.51,4.46.66a44.2,44.2,0,0,0,4.45.22q12.72,0,22-5.68a47.89,47.89,0,0,0,15.27-15.08,68.75,68.75,0,0,0,8.91-21.41A104.63,104.63,0,0,0,422.61,341a95,95,0,0,0-7.95-38.89q-8-17.91-25.78-24Q380.93,309.5,375,341.61Z"/><path class="cls-2" d="M474.46,419.16a10.91,10.91,0,0,1-2.86-.43q-1,6.11-2.7,20.09t-3.5,31.24q-1.75,17.26-3.19,35t-1.43,31.24a108.66,108.66,0,0,0,1,16.16q.94,6.12,3.18,7a7.37,7.37,0,0,1,2.54-4.15,6.13,6.13,0,0,1,3.82-1.53,3.21,3.21,0,0,1,3.34,2.41,15.85,15.85,0,0,1,.8,5,10.31,10.31,0,0,1-2.87,7.65,8.53,8.53,0,0,1-6,2.84,12.38,12.38,0,0,1-10.34-5.25q-4-5.24-6.36-14a112,112,0,0,1-3.34-20.09q-1-11.37-1-24,0-13.1,1-26.87t2.06-25.77q1.11-12,2.39-21.63t2.23-14.86c-1.28-1.75-1.91-4.22-1.91-7.42a23,23,0,0,1,1.11-7q1.11-3.5,3.66-4.37,4.46-32.34,10-64t11-63.58a5.15,5.15,0,0,1-1.43-.21,5.36,5.36,0,0,0-1.43-.22c-1.28,0-3.66.8-7.16,2.4a22.58,22.58,0,0,1-9.07,2.41,4.4,4.4,0,0,1-3-1.32,4.47,4.47,0,0,1-1.43-3.49,12.57,12.57,0,0,1,1.59-6.77,11.66,11.66,0,0,1,4.13-4,15.36,15.36,0,0,1,5.41-1.91,37.34,37.34,0,0,1,5.41-.42,28.7,28.7,0,0,1,8.59,1.3q2.53-10.91,4.93-21.4t4.93-21.41c.42-1.45.85-2.84,1.27-4.15a2.51,2.51,0,0,1,2.55-2,8.2,8.2,0,0,1,4.93,2.18,45.59,45.59,0,0,1,5.25,5,28.6,28.6,0,0,1,4.3,6.33,14.17,14.17,0,0,1,1.74,6.12,70.6,70.6,0,0,1-2.06,17q-2.07,8.29-3.66,17,45.5,25.71,45.49,77.13a88.26,88.26,0,0,1-4.77,28.76,75.14,75.14,0,0,1-13.84,24.62,66.46,66.46,0,0,1-22.27,17,68.09,68.09,0,0,1-29.75,6.31Zm9.71-77.55q-5.9,32.11-10.34,64.88c1.48.3,3,.51,4.45.66a44.2,44.2,0,0,0,4.45.22q12.74,0,22-5.68A47.78,47.78,0,0,0,520,386.61a68.52,68.52,0,0,0,8.91-21.41A104.09,104.09,0,0,0,531.73,341a94.79,94.79,0,0,0-8-38.89q-8-17.91-25.77-24Q490,309.5,484.17,341.61Z"/><path class="cls-2" d="M668.21,497.15q-7,39.54-18.13,64.45t-25,36.26q-13.83,11.35-27.52,11.36A36.05,36.05,0,0,1,575,601.36a71,71,0,0,1-17.66-20.54,107.74,107.74,0,0,1-11.46-28.4,126.24,126.24,0,0,1-4-31,102.16,102.16,0,0,1,2.69-23.59,58.51,58.51,0,0,1,8.56-19.88,43.42,43.42,0,0,1,14.9-13.55q9-5,21.71-5a52,52,0,0,1,14.27,2,32.27,32.27,0,0,1,12.52,6.77,35.46,35.46,0,0,1,9,12.67q3.49,7.86,3.49,19.66A30.82,30.82,0,0,1,626.33,514a26.84,26.84,0,0,1-7,9.18,29.46,29.46,0,0,1-9.5,5.24,31.87,31.87,0,0,1-10,1.75,30.13,30.13,0,0,1-8.27-1.27,27.44,27.44,0,0,1-8.11-3.8,19.46,19.46,0,0,1-6-7A23.43,23.43,0,0,1,575,507a14.58,14.58,0,0,1,3.81-10.26c2.55-2.78,5.3-4.15,8.27-4.15,3.4,0,5.78,1.31,7.16,3.93a42.79,42.79,0,0,1,3.34,8.52,64.65,64.65,0,0,0,2.87,8.3q1.59,3.7,6,3.71,5.41,0,10-4.85c3.07-3.24,4.62-7.5,4.62-12.79s-1.12-9.72-3.34-13.24a26.85,26.85,0,0,0-8.12-8.39,29.25,29.25,0,0,0-10.34-4.19,51.66,51.66,0,0,0-10-1.1q-9.85,0-16.86,4.15a36.05,36.05,0,0,0-11.61,10.92,45.88,45.88,0,0,0-6.69,15.95,85.67,85.67,0,0,0-2.06,18.79,106.49,106.49,0,0,0,3.18,25.56A101.76,101.76,0,0,0,563.86,571a56.54,56.54,0,0,0,13,16.82q7.65,6.56,16.55,6.56,11.13,0,22.27-10.49t20.36-33.2Q645.31,528,651,491.91t5.73-87.6a427.93,427.93,0,0,0-3-52.65q-3-24.26-8.12-51.78-2.22,8.75-5.88,22.07t-8.75,28q-5.1,14.64-11.45,29.06a150.12,150.12,0,0,1-14,25.34q-11.46,16.17-19.73,16.16c-3.81,0-7.11-1.67-9.86-5a40.48,40.48,0,0,1-6.84-13.33A107.11,107.11,0,0,1,565,382.68a180.67,180.67,0,0,1-1.43-22.94q0-13.11,1-26.65T566.88,308q1.44-11.58,3.18-20.1t3.34-11.58a9.28,9.28,0,0,1,4.14-4.15,11.53,11.53,0,0,1,5.41-1.53,13.43,13.43,0,0,1,5.72,1.53c2.12,1,3.19,3,3.19,5.9a83.58,83.58,0,0,1-1.44,15.51Q589,301.2,588,308.62c-.21,2-.59,5.54-1.12,10.49s-1.06,10.63-1.59,17-1,13.18-1.43,20.31-.63,13.92-.63,20.32a142.86,142.86,0,0,0,1.11,19.66q1.11,7.88,4.61,7.87,4.77,0,11.62-11.8a221.8,221.8,0,0,0,13.36-28q6.51-16.16,12.09-32.77t7.79-26.22q1.92-7.86,3.34-16.6a69.47,69.47,0,0,1,4.62-16.17,20.94,20.94,0,0,1,3.5-6.55,7.21,7.21,0,0,1,5.72-2.18q5.09,0,9.55,14.63a256,256,0,0,1,7.63,35.83q3.18,21.19,5.09,44.79t1.91,41.94Q675.21,457.61,668.21,497.15Z"/><path class="cls-3" d="M1003.41,370.88a86.66,86.66,0,0,0,5.09,20.54,44.7,44.7,0,0,0,9.7,15.51,20.17,20.17,0,0,0,15,6.12q9.55,0,18.93-6.78a75.75,75.75,0,0,0,16.07-15.51,39.22,39.22,0,0,1,3.5-4.15,6,6,0,0,1,4.45-2q2.55,0,2.55,4.37v.43a8,8,0,0,1-.8,3.72c-.53,1-1.11,2.11-1.75,3.27a60.47,60.47,0,0,1-8.9,11.8,62.17,62.17,0,0,1-10.82,9,49.51,49.51,0,0,1-11.93,5.68,40.42,40.42,0,0,1-12.25,2,41.47,41.47,0,0,1-22.91-6.33,52.88,52.88,0,0,1-16.54-17.26,85.25,85.25,0,0,1-10-24.91,125.29,125.29,0,0,1-3.34-29.27A147.22,147.22,0,0,1,984,310.59a112.29,112.29,0,0,1,13.36-32.11,76.83,76.83,0,0,1,21.32-22.72,48.12,48.12,0,0,1,28.15-8.74,34,34,0,0,1,24.5,9.83q10.18,9.82,10.18,28.18a58.71,58.71,0,0,1-2.06,15.73,45.74,45.74,0,0,1-6,13.32,32.08,32.08,0,0,1-9.54,9.4,22.61,22.61,0,0,1-12.25,3.49,19.54,19.54,0,0,1-15-6.55q-6-6.56-6-17.91a33.68,33.68,0,0,1,5.25-18.36c3.5-5.52,7.79-8.3,12.88-8.3a8.3,8.3,0,0,1,6.84,3.5,13.19,13.19,0,0,1,2.71,8.3,15.45,15.45,0,0,1-2.55,9q-2.55,3.7-6,3.71a8.51,8.51,0,0,1-4-1.09,7,7,0,0,1-3-2.84,12.42,12.42,0,0,0-1.59,5.68q0,6.12,3.82,8.95a13.09,13.09,0,0,0,8,2.85q8.26,0,12.88-9a39.19,39.19,0,0,0,4.62-18.13q0-12.22-7-20.32a21.88,21.88,0,0,0-17.18-8.08q-12.09,0-20.52,9.61A75.16,75.16,0,0,0,1012,291.8a151.62,151.62,0,0,0-7.64,29.93,188.84,188.84,0,0,0-2.38,28A165.27,165.27,0,0,0,1003.41,370.88Z"/><path class="cls-3" d="M1204.79,407.58a38.16,38.16,0,0,1-6,7.87,39.16,39.16,0,0,1-7.64,6.12,14.68,14.68,0,0,1-7.47,2.4q-14.64,0-21.32-14.86-10.18,6.13-18.13,10.05t-19.09,3.94a31.47,31.47,0,0,1-10.82-2,28.65,28.65,0,0,1-9.86-6.12,32.23,32.23,0,0,1-7.32-10.48,35.18,35.18,0,0,1-2.86-14.64q0-11.36,4.77-19a40,40,0,0,1,11.61-12.23,42.93,42.93,0,0,1,14.79-6.34,68.93,68.93,0,0,1,14.64-1.74,47.15,47.15,0,0,1,11.77,1.31,50.8,50.8,0,0,1,11.45,4.8q5.42-14,11.14-27.52a75.48,75.48,0,0,0,5.73-29.71q0-16.6-6.05-26.87t-18.45-10.27A29.11,29.11,0,0,0,1142,266a44.83,44.83,0,0,0-12.73,10.27,54.62,54.62,0,0,0-9.38,15.51,50.89,50.89,0,0,0-3.66,19.44,32.76,32.76,0,0,0,2.54,12.67q.64,1.75,2.07,1.32a8.59,8.59,0,0,1,2.39-.44q3.81,0,3.81,4.37a7.58,7.58,0,0,1-3.81,6.77q-3.82,2.4-6.36,2.4-7.33,0-11.46-8.3a37.73,37.73,0,0,1-4.13-17q0-15.28,4.93-26.65a62,62,0,0,1,12.72-19.23,51.58,51.58,0,0,1,17.66-11.79,52.15,52.15,0,0,1,19.41-3.93,47.73,47.73,0,0,1,16.22,2.84,41.22,41.22,0,0,1,14.16,8.52,43.4,43.4,0,0,1,10.18,14.63q4,9,4,21.63a85.71,85.71,0,0,1-3.5,24.47q-3.51,11.79-7.64,23.59t-7.63,24a93.06,93.06,0,0,0-3.5,25.78,39.77,39.77,0,0,0,1.27,9.83q1.27,5,5.73,5a8.65,8.65,0,0,0,5.88-2.41,49.52,49.52,0,0,0,5.09-5.24q2.38-2.83,4.46-5.24c1.38-1.6,2.59-2.41,3.66-2.41a2.68,2.68,0,0,1,1.91,1.09,3.63,3.63,0,0,1,1,2.41A15.54,15.54,0,0,1,1204.79,407.58Zm-54.88-43a18.38,18.38,0,0,0-12.09-3.93,26.19,26.19,0,0,0-10,2.18,30.53,30.53,0,0,0-9.38,6.12,32.74,32.74,0,0,0-6.84,9.39,26.66,26.66,0,0,0-2.71,12,21.93,21.93,0,0,0,5.89,15.51q5.88,6.33,13.2,6.33,9.54,0,15.59-5.24t14-12.24v-8.3a61.14,61.14,0,0,1,.63-8.73Q1154.69,368.48,1149.91,364.55Z"/><path class="cls-3" d="M1396.79,521a121.45,121.45,0,0,1-10.49,27.31A76,76,0,0,1,1370.39,569q-9.23,8.29-20,8.3-15.28,0-27.37-10.93t-21.31-28.83a215.12,215.12,0,0,1-15.59-40.64,454,454,0,0,1-10.34-45.87q-4-23.16-5.73-45t-1.75-38c0-2,.53-3.42,1.59-4.15a5.64,5.64,0,0,1,3.18-1.09,23.54,23.54,0,0,1,6.53.87,23,23,0,0,0,6.52.88,22.42,22.42,0,0,0,12.73-4.37,46,46,0,0,0,11.45-11.58,66.39,66.39,0,0,0,8.27-16.17,52.55,52.55,0,0,0,3.18-17.69q0-21.4-13.68-21.41-11.77,0-22,13.11a154.41,154.41,0,0,0-18.45,31.46A386.47,386.47,0,0,0,1253,375.47q-6.37,19.23-10.18,31.9a28.6,28.6,0,0,1-1.27,4.37q-1,2.61-2.07,5.24a17.85,17.85,0,0,1-2.55,4.37,4,4,0,0,1-3,1.75q-4.77,0-7-5a44.59,44.59,0,0,1-3.18-11.8,87.23,87.23,0,0,1-.79-14.2q.15-7.43.15-11.79,0-16.17,1.44-39.11t4.45-48.5q3-25.55,7.64-52.64t10.65-52a421.54,421.54,0,0,1,13.84-46.09q7.8-21.19,17.34-35.17A69.72,69.72,0,0,1,1292,91.26q7.17-5.91,13.53-5.9t10.81,7.42q4.46,7.44,4.46,25.78,0,23.59-6.21,52.87A426.64,426.64,0,0,1,1298,229.1a308.58,308.58,0,0,1-24.18,51.78q-13.85,23.37-29.11,35.17-2.23,16.6-3.5,33.21t-1.27,33.2a352.56,352.56,0,0,1,10.5-33.86,220.25,220.25,0,0,1,15.9-34.73A122.57,122.57,0,0,1,1287,286.56q11.46-11.15,24.82-11.14,10.82,0,18.93,9.61t8.11,24.9q0,17-6.36,29.71a78.76,78.76,0,0,1-14.8,21,60.58,60.58,0,0,1-17,12.23q-8.58,3.93-13,3.93.32,12.24,2.23,30.59t5.25,38.88q3.33,20.53,8.43,41.07a254,254,0,0,0,11.93,36.92q6.84,16.39,15.43,26.65t19.41,10.27q8.89,0,16.22-6.77a60.46,60.46,0,0,0,12.57-17,98.78,98.78,0,0,0,8.11-22.5,101.74,101.74,0,0,0,2.86-23.16q0-21.85-9.06-33.42t-24.34-11.58A43.38,43.38,0,0,0,1347,448a30.4,30.4,0,0,0-18.45,12.89c-2.23,3.34-3.34,7.65-3.34,12.89a17,17,0,0,0,4.61,12.23q4.62,4.8,9.71,4.81a5.75,5.75,0,0,0,5.72-3.72,53.19,53.19,0,0,0,2.71-8.3,49.24,49.24,0,0,1,2.86-8.52c1.16-2.62,3.34-3.93,6.52-3.93a10.76,10.76,0,0,1,8.28,3.93q3.5,3.93,3.5,10.92a19.29,19.29,0,0,1-2.55,10.27,23.15,23.15,0,0,1-6.2,6.78,23.64,23.64,0,0,1-8,3.71,32.25,32.25,0,0,1-7.79,1.09,32.69,32.69,0,0,1-9.71-1.53,29.57,29.57,0,0,1-9.22-4.8,24.3,24.3,0,0,1-7-8.74,28.68,28.68,0,0,1-2.71-12.89q0-10.93,4-18.57a41.6,41.6,0,0,1,9.86-12.67,36,36,0,0,1,13.21-7.21,48.74,48.74,0,0,1,14-2.19q19.08,0,31.33,15.95t12.25,42.17A113.84,113.84,0,0,1,1396.79,521ZM1308.67,107.2q-1-4.8-3.5-4.8-3.18,0-7.64,6.55-5.41,7.86-11.29,23.38t-11.46,34.51q-5.57,19-10.5,39.76t-8.74,39.54q-3.82,18.8-6.21,33.43t-3,21.19q8.26-6.56,16.23-19a215.47,215.47,0,0,0,15-28.18,347.06,347.06,0,0,0,12.88-33.86q5.88-18.12,10.18-36.05t6.69-34.51a211.14,211.14,0,0,0,2.38-29.71A65.31,65.31,0,0,0,1308.67,107.2Z"/><path class="cls-3" d="M1444.36,387.7a8.61,8.61,0,0,1-1.12,2.19,56.34,56.34,0,0,1-10.34,14,92.44,92.44,0,0,1-13.2,10.85,57.82,57.82,0,0,1-14.63,7.2,49.29,49.29,0,0,1-15.28,2.48,39.62,39.62,0,0,1-16.38-3.5,35.61,35.61,0,0,1-13.68-11.14q-5.89-7.63-9.39-19.44t-3.5-28.4a190.46,190.46,0,0,1,4.94-42.6A176.76,176.76,0,0,1,1365.46,280q8.74-17.69,20.68-28.83T1412.38,240q10.18,0,16.07,10t5.89,24a65.76,65.76,0,0,1-3,19.44,51.67,51.67,0,0,1-9.7,17.91,52.45,52.45,0,0,1-17,13.33q-10.33,5.23-24.66,5.24a37.22,37.22,0,0,1-9.86-1.31,75.4,75.4,0,0,0-3.5,14.35,112.65,112.65,0,0,0,.16,34.76,75.56,75.56,0,0,0,4.29,15.86,30.69,30.69,0,0,0,7.64,11.52,16.44,16.44,0,0,0,11.45,4.34q12.09,0,24.82-7.64a75.88,75.88,0,0,0,20.68-17.7c.64-.58,1.64-1.38,3-2.4a6.46,6.46,0,0,1,3.66-1.53q2.55,0,2.55,4.8A7.77,7.77,0,0,1,1444.36,387.7ZM1378,316.49a30.15,30.15,0,0,0,5.09.43,38.26,38.26,0,0,0,18.3-4.15,42.34,42.34,0,0,0,12.88-10.26,40,40,0,0,0,7.48-13.77,47.87,47.87,0,0,0,2.39-14.2,24.94,24.94,0,0,0-3-12.67,9.57,9.57,0,0,0-8.75-5.24q-4.45,0-10.18,5.24a74.88,74.88,0,0,0-11.29,13.55,131.17,131.17,0,0,0-10.34,18.78,118.28,118.28,0,0,0-7.32,21A24.19,24.19,0,0,0,1378,316.49Z"/><path class="cls-2" d="M968.33,321.51c0,6.66-7,12.74-7.92,19.15s4.07,14.36,2.24,20.6-10.29,10.2-13,16.12-.16,14.9-3.69,20.39-12.75,6.85-17,11.8-4.32,14.23-9.27,18.53-14.13,3-19.66,6.55-8.11,12.44-14.1,15.18-14.36-1.12-20.71.74-11.26,9.62-17.82,10.56C841,462,834,456,827.3,456s-13.67,6.06-20.07,5.15c-6.57-.94-11.59-8.74-17.83-10.56s-14.78,2-20.7-.74-8.61-11.64-14.1-15.18-14.71-2.26-19.66-6.55-5-13.58-9.27-18.53-13.47-6.28-17-11.8-.95-14.4-3.69-20.39-11.15-9.78-13-16.13,3.17-14,2.24-20.59-7.92-12.49-7.92-19.15,7-12.74,7.92-19.14c.93-6.57-4.07-14.37-2.24-20.6s10.29-10.2,13-16.13.15-14.89,3.69-20.38,12.74-6.86,17-11.8,4.32-14.24,9.27-18.53,14.13-3,19.66-6.56,8.11-12.44,14.1-15.18,14.36,1.13,20.7-.73,11.26-9.63,17.83-10.56c6.4-.91,13.41,5.15,20.07,5.15S841,181,847.37,181.9c6.56.93,11.59,8.73,17.83,10.56s14.78-2,20.7.73,8.61,11.65,14.1,15.19,14.71,2.26,19.66,6.55,5,13.57,9.27,18.53,13.47,6.27,17,11.8.95,14.39,3.69,20.38,11.14,9.79,13,16.13-3.17,14-2.24,20.6C961.33,308.77,968.33,314.86,968.33,321.51Z"/><path class="cls-1" d="M810.52,447.52a9.76,9.76,0,0,1-1.32-.09c-3.39-.48-6.29-2.82-9.09-5.08-2.36-1.9-4.58-3.7-7-4.41s-5.51-.4-8.42-.08c-3.54.38-7.2.77-10.24-.62s-5.2-4.46-7.24-7.41c-1.73-2.5-3.36-4.87-5.5-6.25s-5.14-1.93-8-2.45c-3.51-.63-7.15-1.28-9.69-3.49s-3.71-5.71-4.84-9.11c-.92-2.77-1.87-5.64-3.55-7.57s-4.25-3.22-7-4.58c-3.2-1.6-6.52-3.25-8.35-6.09s-1.95-6.51-2.07-10.07c-.11-2.93-.22-6-1.29-8.3s-3.16-4.26-5.38-6.32c-2.63-2.45-5.36-5-6.32-8.24s0-6.76.86-10.2c.74-2.85,1.49-5.79,1.13-8.38s-1.82-4.93-3.36-7.53c-1.84-3.09-3.75-6.3-3.75-9.74s1.91-6.64,3.75-9.74c1.54-2.6,3-5,3.36-7.53s-.39-5.53-1.13-8.38c-.88-3.44-1.79-7-.86-10.19s3.69-5.8,6.32-8.24c2.22-2.07,4.33-4,5.38-6.32s1.18-5.38,1.29-8.31c.12-3.56.25-7.24,2.07-10.07s5.15-4.49,8.35-6.09c2.73-1.36,5.31-2.64,7-4.57s2.64-4.81,3.55-7.58c1.13-3.39,2.29-6.9,4.84-9.11s6.18-2.86,9.69-3.49c2.88-.52,5.85-1.06,8-2.45s3.77-3.74,5.5-6.25c2-2.95,4.15-6,7.24-7.41s6.7-1,10.24-.61c2.92.31,5.93.64,8.42-.09s4.64-2.5,7-4.4c2.8-2.27,5.7-4.6,9.09-5.09s6.65.94,9.92,2.3c2.73,1.13,5.55,2.31,8.18,2.31s5.45-1.18,8.18-2.31c3.27-1.36,6.65-2.76,9.92-2.3s6.29,2.82,9.09,5.09c2.35,1.9,4.58,3.69,7,4.4s5.5.41,8.42.09c3.54-.38,7.2-.78,10.24.61s5.2,4.46,7.24,7.41c1.73,2.51,3.36,4.87,5.5,6.25s5.14,1.93,8,2.45c3.51.63,7.15,1.29,9.69,3.49s3.71,5.72,4.83,9.11c.92,2.77,1.87,5.64,3.56,7.58s4.25,3.22,7,4.58c3.2,1.59,6.52,3.24,8.35,6.09s1.95,6.5,2.07,10.06c.11,2.93.22,6,1.29,8.31s3.16,4.25,5.38,6.32c2.63,2.44,5.36,5,6.32,8.24s0,6.75-.86,10.19c-.74,2.85-1.49,5.8-1.13,8.38s1.82,4.93,3.36,7.53c1.84,3.1,3.75,6.3,3.75,9.74s-1.91,6.65-3.75,9.75c-1.54,2.59-3,5-3.36,7.52s.39,5.53,1.13,8.39c.88,3.43,1.79,7,.86,10.19s-3.69,5.8-6.32,8.24c-2.23,2.06-4.33,4-5.38,6.32s-1.18,5.37-1.29,8.3c-.12,3.56-.26,7.25-2.07,10.07s-5.15,4.49-8.35,6.09c-2.73,1.36-5.31,2.64-7,4.58s-2.64,4.8-3.56,7.57c-1.12,3.4-2.28,6.9-4.83,9.11s-6.18,2.86-9.69,3.5c-2.88.51-5.86,1.05-8,2.44s-3.77,3.75-5.5,6.25c-2,2.95-4.15,6-7.24,7.41s-6.7,1-10.24.62c-2.92-.32-5.93-.65-8.42.08s-4.65,2.51-7,4.41c-2.8,2.26-5.7,4.6-9.09,5.08s-6.65-.94-9.92-2.3c-2.73-1.13-5.55-2.3-8.18-2.3s-5.45,1.17-8.18,2.3S813.38,447.52,810.52,447.52Zm-21-11.66a14.22,14.22,0,0,1,4,.51c2.74.8,5.19,2.78,7.57,4.7,2.63,2.12,5.35,4.32,8.29,4.74s5.86-.86,9.06-2.19c2.88-1.2,5.85-2.44,8.81-2.44s5.93,1.24,8.81,2.44c3.2,1.33,6.23,2.59,9.06,2.19s5.66-2.62,8.29-4.74c2.37-1.92,4.83-3.9,7.57-4.7s6-.48,9.06-.15c3.47.38,6.75.73,9.38-.47s4.57-4,6.56-6.85c1.75-2.53,3.55-5.14,6-6.7s5.58-2.13,8.62-2.68c3.45-.62,6.7-1.21,8.9-3.12s3.25-5,4.36-8.38c1-2.93,2-5.95,3.86-8.14s4.74-3.6,7.5-5c3.14-1.57,6.11-3,7.7-5.51s1.69-5.74,1.81-9.24c.11-3.09.23-6.28,1.44-8.92s3.51-4.76,5.75-6.84c2.59-2.4,5-4.67,5.86-7.51s0-5.94-.87-9.32c-.78-3-1.58-6.11-1.16-9s2-5.51,3.57-8.13c1.73-2.91,3.52-5.92,3.52-8.91s-1.79-6-3.52-8.9c-1.56-2.62-3.17-5.33-3.57-8.14s.38-6,1.16-9c.86-3.37,1.68-6.56.87-9.32s-3.27-5.1-5.86-7.5c-2.24-2.08-4.56-4.24-5.75-6.84s-1.33-5.84-1.44-8.93c-.12-3.49-.24-6.79-1.81-9.24s-4.56-3.94-7.7-5.51c-2.76-1.37-5.6-2.79-7.49-5s-2.9-5.21-3.87-8.13c-1.11-3.33-2.15-6.47-4.36-8.39s-5.45-2.49-8.9-3.12c-3-.54-6.18-1.11-8.62-2.68s-4.22-4.17-6-6.69c-2-2.9-3.89-5.63-6.57-6.86s-5.91-.84-9.38-.47c-3.08.33-6.26.68-9.06-.14s-5.2-2.79-7.57-4.71c-2.63-2.12-5.35-4.31-8.29-4.73s-5.86.85-9.06,2.19c-2.88,1.19-5.85,2.43-8.81,2.43s-5.93-1.24-8.81-2.43c-3.2-1.34-6.23-2.6-9.06-2.19s-5.66,2.61-8.29,4.73c-2.38,1.92-4.83,3.91-7.57,4.71s-6,.47-9.06.14c-3.47-.37-6.75-.73-9.38.47s-4.57,4-6.57,6.86c-1.74,2.52-3.55,5.13-6,6.69S757,223,754,223.5c-3.45.63-6.7,1.21-8.9,3.12s-3.25,5.06-4.36,8.39c-1,2.92-2,6-3.87,8.13s-4.73,3.6-7.49,5c-3.14,1.57-6.11,3-7.7,5.51s-1.69,5.75-1.81,9.24c-.11,3.09-.23,6.28-1.44,8.93s-3.51,4.76-5.75,6.84c-2.59,2.4-5,4.66-5.86,7.5s0,5.95.87,9.32c.78,3,1.57,6.12,1.16,9s-2,5.52-3.57,8.14c-1.73,2.91-3.52,5.91-3.52,8.9s1.79,6,3.52,8.91c1.56,2.62,3.17,5.32,3.57,8.13s-.38,6-1.16,9c-.86,3.38-1.68,6.56-.87,9.32s3.27,5.11,5.86,7.51c2.24,2.08,4.56,4.23,5.75,6.83s1.33,5.84,1.44,8.93c.12,3.5.24,6.8,1.81,9.24s4.56,3.94,7.7,5.51c2.75,1.37,5.6,2.79,7.49,5s2.9,5.21,3.87,8.14c1.11,3.32,2.15,6.47,4.36,8.38s5.45,2.5,8.9,3.12c3,.55,6.18,1.11,8.62,2.68s4.22,4.17,6,6.7c2,2.89,3.89,5.63,6.57,6.85s5.91.85,9.38.47A47.25,47.25,0,0,1,789.53,435.86Z"/><path class="cls-1" d="M832,362.55c-28.46,0-53.26-6.14-66-15.21l27.54,55.13a3.71,3.71,0,0,0,1.48,1.7,38.35,38.35,0,0,0,9.44,3.78l-12-39.69a.68.68,0,0,1,1.29-.44l16.61,41.49a131.28,131.28,0,0,0,16.52,1.7l3.52-39.79a1.11,1.11,0,0,1,2.18,0L836.15,411a131.09,131.09,0,0,0,16.52-1.7l16.61-41.49a.68.68,0,0,1,1.29.44L858.6,408a38.35,38.35,0,0,0,9.44-3.78,3.65,3.65,0,0,0,1.48-1.7l26.56-53.91C882.9,357,859.15,362.55,832,362.55Z"/><path class="cls-1" d="M896.79,333.74c-11.88,6.84-29.29,11.15-48.7,11.15-22.76,0-42.77-5.94-54.34-14.92a3.91,3.91,0,0,1-.8-5.25l0-.06a3.83,3.83,0,0,1,4.52-1.48c10.3,3.77,24,5.34,38.77,3.84,30.09-3.06,53-17.43,51.72-32.76l-.24-2.27a1.46,1.46,0,0,0-2.52-.88c-7.7,8.05-21.42,14.23-37.54,15.86-11.46,1.17-22.21-.16-30.75-3.3a4.79,4.79,0,0,1-2.77-2.6l-.06-.12a5.06,5.06,0,0,1,5.74-6.73,69.32,69.32,0,0,0,12.66,1.13c18.67,0,33.8-7,33.8-15.59v0a1.85,1.85,0,0,0-1.92-1.8h-.77c-15.54,0-28.45-5.28-32.37-12a1.84,1.84,0,0,1,0-1.87l.07-.11a1.76,1.76,0,0,1,1.18-.71c11.69-2,20.35-9.08,20.35-17.53,0-10-12.17-18.14-27.17-18.14-.65,0-1.28,0-1.92.07a14,14,0,0,1,4.1,9.55v.08c0,3.92-3.59,6.76-7.5,6.63-12-.41-24.39,7.68-30.4,21a37,37,0,0,0-2.6,23.16c-32.77,7.89-28,36.2-28,36.2h0c.93,17.77,32.79,32,72,32,30.41,0,56.42-8.59,67-20.74A1.28,1.28,0,0,0,896.79,333.74Z"/></svg>